HIERARCHY
ROOT Hips
{
	OFFSET 0.000000 0.000000 0.000000
	CHANNELS 6 Xposition Yposition Zposition Zrotation Yrotation Xrotation 
	JOINT LHipJoint
	{
		OFFSET 0.000000 0.000000 0.000000
		CHANNELS 3 Zrotation Yrotation Xrotation
		JOINT LeftUpLeg
		{
			OFFSET 1.363060 -1.794630 0.839290
			CHANNELS 3 Zrotation Yrotation Xrotation
			JOINT LeftLeg
			{
				OFFSET 2.448110 -6.726130 0.000000
				CHANNELS 3 Zrotation Yrotation Xrotation
				JOINT LeftFoot
				{
					OFFSET 2.562200 -7.039590 0.000000
					CHANNELS 3 Zrotation Yrotation Xrotation
					JOINT LeftToeBase
					{
						OFFSET 0.157640 -0.433110 2.322550
						CHANNELS 3 Zrotation Yrotation Xrotation
						End Site
						{
							OFFSET 0.000000 0.000000 0.000000
						}
					}
				}
			}
		}
	}
	JOINT RHipJoint
	{
		OFFSET 0.000000 0.000000 0.000000
		CHANNELS 3 Zrotation Yrotation Xrotation
		JOINT RightUpLeg
		{
			OFFSET -1.305520 -1.794630 0.839290
			CHANNELS 3 Zrotation Yrotation Xrotation
			JOINT RightLeg
			{
				OFFSET -2.542530 -6.985550 0.000000
				CHANNELS 3 Zrotation Yrotation Xrotation
				JOINT RightFoot
				{
					OFFSET -2.568260 -7.056230 0.000000
					CHANNELS 3 Zrotation Yrotation Xrotation
					JOINT RightToeBase
					{
						OFFSET -0.164730 -0.452590 2.363150
						CHANNELS 3 Zrotation Yrotation Xrotation
						End Site
						{
							OFFSET 0.000000 0.000000 0.000000
						}
					}
				}
			}
		}
	}
	JOINT LowerBack
	{
		OFFSET 0.000000 0.000000 0.000000
		CHANNELS 3 Zrotation Yrotation Xrotation
		JOINT Spine
		{
			OFFSET 0.028270 2.035590 -0.193380
			CHANNELS 3 Zrotation Yrotation Xrotation
			JOINT Spine1
			{
				OFFSET 0.056720 2.048850 -0.042750
				CHANNELS 3 Zrotation Yrotation Xrotation
				JOINT Neck
				{
					OFFSET 0.000000 0.000000 0.000000
					CHANNELS 3 Zrotation Yrotation Xrotation
					JOINT Neck1
					{
						OFFSET -0.054170 1.746240 0.172020
						CHANNELS 3 Zrotation Yrotation Xrotation
						JOINT Head
						{
							OFFSET 0.104070 1.761360 -0.123970
							CHANNELS 3 Zrotation Yrotation Xrotation
							End Site
							{
								OFFSET 0.000000 0.000000 0.000000
							}
						}
					}
				}
				JOINT LeftShoulder
				{
					OFFSET 0.000000 0.000000 0.000000
					CHANNELS 3 Zrotation Yrotation Xrotation
					JOINT LeftArm
					{
						OFFSET 3.362410 1.200890 -0.311210
						CHANNELS 3 Zrotation Yrotation Xrotation
						JOINT LeftForeArm
						{
							OFFSET 4.983000 -0.000000 -0.000000
							CHANNELS 3 Zrotation Yrotation Xrotation
							JOINT LeftHand
							{
								OFFSET 3.483560 -0.000000 -0.000000
								CHANNELS 3 Zrotation Yrotation Xrotation
								JOINT LeftFingerBase
								{
									OFFSET 0.000000 0.000000 0.000000
									CHANNELS 3 Zrotation Yrotation Xrotation
									JOINT LeftHandIndex1
									{
										OFFSET 0.715260 -0.000000 -0.000000
										CHANNELS 3 Zrotation Yrotation Xrotation
										End Site
										{
											OFFSET 0.000000 0.000000 0.000000
										}
									}
								}
								JOINT LThumb
								{
									OFFSET 0.000000 0.000000 0.000000
									CHANNELS 3 Zrotation Yrotation Xrotation
									End Site
									{
										OFFSET 0.000000 0.000000 0.000000
									}
								}
							}
						}
					}
				}
				JOINT RightShoulder
				{
					OFFSET 0.000000 0.000000 0.000000
					CHANNELS 3 Zrotation Yrotation Xrotation
					JOINT RightArm
					{
						OFFSET -3.136600 1.374050 -0.404650
						CHANNELS 3 Zrotation Yrotation Xrotation
						JOINT RightForeArm
						{
							OFFSET -5.241900 -0.000000 -0.000000
							CHANNELS 3 Zrotation Yrotation Xrotation
							JOINT RightHand
							{
								OFFSET -3.444170 -0.000000 -0.000000
								CHANNELS 3 Zrotation Yrotation Xrotation
								JOINT RightFingerBase
								{
									OFFSET 0.000000 0.000000 0.000000
									CHANNELS 3 Zrotation Yrotation Xrotation
									JOINT RightHandIndex1
									{
										OFFSET -0.622530 -0.000000 -0.000000
										CHANNELS 3 Zrotation Yrotation Xrotation
										End Site
										{
											OFFSET 0.000000 0.000000 0.000000
										}
									}
								}
								JOINT RThumb
								{
									OFFSET 0.000000 0.000000 0.000000
									CHANNELS 3 Zrotation Yrotation Xrotation
									End Site
									{
										OFFSET 0.000000 0.000000 0.000000
									}
								}
							}
						}
					}
				}
			}
		}
	}
}
MOTION
Frames: 8
Frame Time: 0.008333
-35.220349 17.292581 3.642644 -177.739228 2.616081 -174.835027 13.891127 3.124635 -2.462874 -10.084677 -18.993574 -11.484537 -9.451161 7.079724 14.345919 -4.290247 16.975354 -17.493304 10.407000 -17.632500 -60.840300 -15.285599 -5.512577 -3.273197 7.065603 3.598479 -1.008698 7.431151 0.299272 7.712881 0.137694 -2.248541 14.130303 0.000000 0.000000 0.000000 5.998318 0.986547 8.383653 0.981530 2.887211 -4.914801 -0.735404 1.440420 -14.121854 -4.518433 -4.830871 -17.589762 7.251222 -8.784006 16.254599 2.187500 -4.683400 14.468100 8.568775 -7.116844 0.326867 -89.873524 12.059199 14.849173 16.980301 -30.266478 -5.965567 -0.529957 2.206875 7.768940 25.453307 31.862645 13.608600 -7.125000 0.000000 0.000000 -5.515100 61.924800 -2.274300 -10.224879 7.787995 1.665056 76.381393 -13.879929 48.234686 -22.542955 36.901020 -6.195607 1.402296 -2.153275 -20.102197 -17.477493 -25.311912 7.156700 7.125000 0.000000 0.000000 11.316500 -53.265900 -2.324300 
-35.224097 17.292030 3.642534 -177.777380 2.602035 -174.844184 13.888650 3.130283 -2.461515 -10.137021 -18.955213 -11.465882 -9.473070 7.030198 14.235299 -4.341865 17.088766 -17.379632 10.388600 -17.622700 -60.779500 -15.283690 -5.514087 -3.270185 7.065751 3.598407 -1.008906 7.431170 0.299185 7.712811 0.137577 -2.248638 14.130268 0.000000 0.000000 0.000000 5.914545 1.005246 8.406100 0.974283 2.902921 -4.916354 -0.720899 1.455692 -14.145226 -4.605832 -4.793412 -17.540487 7.212246 -8.684191 16.233681 2.188900 -4.654900 14.431400 8.569775 -7.124650 0.326569 -89.924607 12.017663 15.109305 17.209071 -30.499606 -6.046615 -0.529386 2.207128 7.339380 25.765709 31.656377 13.689800 -7.125000 0.000000 0.000000 -5.050400 61.775800 -2.064400 -10.215455 7.788483 1.666702 76.533064 -13.974253 48.366627 -22.869846 37.220364 -6.327724 1.402938 -2.161088 -20.005104 -17.634670 -25.363062 7.235800 7.125000 0.000000 0.000000 11.172700 -53.335800 -2.313400 
-35.231154 17.293353 3.642865 -177.904442 2.620810 -174.836960 13.892401 3.127208 -2.455438 -10.290444 -19.052146 -11.402645 -9.507622 7.016326 14.190004 -4.170338 16.717066 -17.538632 10.253800 -17.550100 -60.333300 -15.282004 -5.511115 -3.272273 7.065650 3.598431 -1.008770 7.431168 0.299308 7.712878 0.137397 -2.248510 14.130303 0.000000 0.000000 0.000000 5.748619 1.026015 8.392468 0.964672 2.902590 -4.910835 -0.702220 1.469660 -14.122563 -4.546648 -4.722738 -17.492219 7.025610 -8.558528 16.186290 2.062900 -4.604000 14.351100 8.578096 -7.124308 0.329298 -89.911888 11.995266 15.512326 17.481003 -30.781401 -6.144278 -0.546802 2.203714 6.913848 25.839805 31.686470 13.744000 -7.125000 0.000000 0.000000 -4.974300 61.822600 -2.038700 -10.191943 7.770454 1.658501 76.531524 -13.868545 48.741605 -23.250015 37.558819 -6.468164 1.421094 -2.150942 -20.329140 -17.648761 -25.469526 7.275800 7.125000 0.000000 0.000000 11.195200 -53.444900 -2.348200 
-35.238210 17.295007 3.644739 -177.977136 2.652731 -174.823935 13.888226 3.122222 -2.444906 -10.353063 -19.229060 -11.316859 -9.517634 7.016202 14.184072 -3.810300 15.872473 -17.863901 10.021900 -17.422100 -59.561400 -15.281348 -5.508236 -3.276812 7.066064 3.598204 -1.009420 7.431225 0.298994 7.712660 0.137220 -2.248822 14.130157 0.000000 0.000000 0.000000 5.632957 1.047687 8.371160 0.966805 2.905454 -4.903885 -0.672470 1.483039 -14.040217 -4.305085 -4.716419 -17.803488 6.677986 -8.613233 16.315438 1.772300 -4.606900 14.492400 8.597815 -7.124438 0.319553 -89.971437 11.895441 15.726679 17.645290 -30.966840 -6.216219 -0.538729 2.207380 6.700548 26.218937 31.656311 13.934600 -7.125000 0.000000 0.000000 -4.517200 61.868900 -1.855800 -10.163008 7.749413 1.641398 76.409328 -13.722938 49.068687 -23.616117 37.845212 -6.580043 1.462526 -2.112201 -20.501803 -16.949263 -25.580784 7.040400 7.125000 0.000000 0.000000 11.912400 -53.464700 -2.507700 
-35.243723 17.293133 3.648157 -177.976617 2.642142 -174.813539 13.880464 3.117900 -2.436544 -10.329420 -19.333176 -11.281023 -9.506282 7.017481 14.180158 -3.480447 15.064066 -18.091108 9.804500 -17.298400 -58.832900 -15.278216 -5.506518 -3.277033 7.065884 3.598248 -1.009193 7.431211 0.299120 7.712750 0.137203 -2.248657 14.130202 0.000000 0.000000 0.000000 5.593144 1.051818 8.414021 0.965415 2.911318 -4.912700 -0.675223 1.489327 -14.080375 -4.109243 -4.608839 -17.855497 6.438599 -8.495183 16.338611 1.585200 -4.546500 14.485000 8.612765 -7.133581 0.309415 -90.081339 11.804474 15.622174 17.741154 -31.063864 -6.257062 -0.533390 2.212472 6.776226 26.261471 31.642338 13.949800 -7.125000 0.000000 0.000000 -4.458500 61.858800 -1.830600 -10.109614 7.735487 1.630789 76.112041 -13.771112 49.593450 -24.132757 38.240406 -6.759134 1.489406 -2.073478 -20.963622 -16.705192 -25.501599 6.929800 7.125000 0.000000 0.000000 12.115800 -53.369100 -2.523000 
-35.247141 17.290928 3.650803 -177.957470 2.601528 -174.785690 13.878261 3.111954 -2.434468 -10.301102 -19.314312 -11.331085 -9.506242 7.014657 14.152772 -3.505499 15.109609 -18.054082 9.683400 -17.227900 -58.424700 -15.277896 -5.504471 -3.273265 7.063675 3.599294 -1.005952 7.430957 0.300873 7.713951 0.137399 -2.246802 14.130903 0.000000 0.000000 0.000000 5.530588 1.055600 8.455104 0.968509 2.926211 -4.937408 -0.656105 1.506817 -14.206764 -4.112932 -4.559956 -17.729729 6.441844 -8.417332 16.305748 1.593000 -4.518900 14.424800 8.613850 -7.142856 0.306989 -90.117571 11.822895 15.655478 17.933633 -31.241817 -6.318199 -0.561415 2.210911 6.753398 25.778307 31.763766 13.742200 -7.125000 0.000000 0.000000 -5.069800 61.879100 -2.084700 -10.104135 7.751003 1.632453 76.342804 -13.875870 49.414799 -24.273748 38.395439 -6.838103 1.461427 -2.104497 -20.924704 -17.357953 -25.255216 7.109400 7.125000 0.000000 0.000000 11.382200 -53.208000 -2.321900 
-35.248244 17.290487 3.651354 -177.903200 2.553893 -174.768792 13.877222 3.111356 -2.435967 -10.232204 -19.306057 -11.362227 -9.513044 6.990076 14.090593 -3.778501 15.763536 -17.895564 9.706900 -17.241700 -58.504100 -15.281609 -5.504450 -3.273006 7.062816 3.599719 -1.004668 7.430856 0.301574 7.714424 0.137469 -2.246081 14.131185 0.000000 0.000000 0.000000 5.462751 1.049369 8.418983 0.982603 2.908380 -4.939151 -0.554547 1.514155 -14.207640 -4.253173 -4.544864 -17.685108 6.587297 -8.349247 16.284947 1.722400 -4.498400 14.408300 8.603142 -7.133538 0.311967 -90.104043 11.849583 15.915081 18.148305 -31.450414 -6.387514 -0.586297 2.206655 6.528599 25.513178 31.803246 13.618100 -7.125000 0.000000 0.000000 -5.390500 61.863600 -2.215000 -10.106241 7.751838 1.632453 76.290611 -13.799063 49.534557 -24.329610 38.431009 -6.851913 1.454476 -2.102821 -20.985264 -17.427419 -25.042642 7.072900 7.125000 0.000000 0.000000 11.236200 -53.009300 -2.236500 
-35.253315 17.291589 3.652898 -177.965818 2.524769 -174.770697 13.885129 3.102847 -2.437765 -10.331246 -19.404432 -11.338574 -9.544342 6.996242 14.079183 -3.809094 15.914211 -18.075971 9.823800 -17.309600 -58.897900 -15.283068 -5.500609 -3.279149 7.063058 3.599597 -1.005023 7.430889 0.301422 7.714305 0.137300 -2.246252 14.131110 0.000000 0.000000 0.000000 5.324634 1.030538 8.342463 0.984009 2.843348 -4.915755 -0.460918 1.498360 -14.085818 -4.326706 -4.487523 -17.706927 6.677823 -8.220973 16.251033 1.808600 -4.442200 14.381700 8.605781 -7.115415 0.311291 -90.140715 11.703351 15.916606 18.160415 -31.473054 -6.395781 -0.576879 2.210383 6.566098 25.632394 31.722057 13.646800 -7.125000 0.000000 0.000000 -5.212700 61.802200 -2.134200 -10.104930 7.740016 1.634157 76.134133 -13.700434 49.702551 -24.599116 38.648326 -6.949028 1.476655 -2.077056 -20.856110 -16.960200 -25.164278 6.935900 7.125000 0.000000 0.000000 11.727200 -53.076100 -2.355700 
